<svg xmlns="http://www.w3.org/2000/svg" width="154.679" height="160.013" viewBox="0 0 154.679 160.013">
  <defs>
    <style>
      .cls-1 {
        fill: #858585;
      }
    </style>
  </defs>
  <path id="draftsstandard" class="cls-1" d="M159.678,20H74.338a16.048,16.048,0,0,0-16,16v2.667A2.52,2.52,0,0,0,61,41.335h77.34a16.048,16.048,0,0,1,16,16V140.01a2.52,2.52,0,0,0,2.667,2.667h2.667a16.048,16.048,0,0,0,16-16V36A16.048,16.048,0,0,0,159.678,20ZM122.342,57.336H37a16.048,16.048,0,0,0-16,16v90.674a16.048,16.048,0,0,0,16,16h85.34a16.048,16.048,0,0,0,16-16V73.338A16.048,16.048,0,0,0,122.342,57.336ZM42.335,84.005a5.349,5.349,0,0,1,5.334-5.334h53.338a5.349,5.349,0,0,1,5.334,5.334v5.334a5.349,5.349,0,0,1-5.334,5.334H47.669a5.349,5.349,0,0,1-5.334-5.334Zm64.005,69.339a5.349,5.349,0,0,1-5.334,5.334H47.669a5.349,5.349,0,0,1-5.334-5.334v-5.334a5.349,5.349,0,0,1,5.334-5.334h53.338a5.349,5.349,0,0,1,5.334,5.334Zm10.668-32a5.349,5.349,0,0,1-5.334,5.334H47.669a5.349,5.349,0,0,1-5.334-5.334v-5.334a5.349,5.349,0,0,1,5.334-5.334h64.005a5.349,5.349,0,0,1,5.334,5.334Z" transform="translate(-21 -20)"/>
</svg>
