<svg xmlns="http://www.w3.org/2000/svg" width="160.368" height="174.55" viewBox="0 0 160.368 174.55">
  <defs>
    <style>
      .cls-1 {
        fill: #858585;
      }
    </style>
  </defs>
  <path id="new_custom16action" class="cls-1" d="M146.913,147.459H144v-64a5.744,5.744,0,0,0-5.818-5.818h-5.818a5.744,5.744,0,0,0-5.818,5.818v64H109.457v-64a5.744,5.744,0,0,0-5.818-5.818H97.821A5.744,5.744,0,0,0,92,83.457v64H74.911v-64a5.744,5.744,0,0,0-5.818-5.818H63.274a5.744,5.744,0,0,0-5.818,5.818v64H40.365v-64a5.744,5.744,0,0,0-5.818-5.818H28.728a5.744,5.744,0,0,0-5.818,5.818v64H21.091A17.385,17.385,0,0,0,4,164.914v5.818a5.744,5.744,0,0,0,5.818,5.818H158.55a5.744,5.744,0,0,0,5.818-5.818v-5.818C164,155.459,156.368,147.459,146.913,147.459ZM161.1,43.819,90.548,4.182a10.909,10.909,0,0,0-13.091,0L6.909,43.819A5.8,5.8,0,0,0,4,48.91v5.455a5.744,5.744,0,0,0,5.818,5.818H158.55a5.744,5.744,0,0,0,5.818-5.818V49.274A7.794,7.794,0,0,0,161.1,43.819ZM84,48.547A14.281,14.281,0,0,1,69.82,34a14.187,14.187,0,1,1,28.364,0A14.281,14.281,0,0,1,84,48.547Z" transform="translate(-4 -2)"/>
</svg>
