<svg xmlns="http://www.w3.org/2000/svg" width="193.362" height="145.022" viewBox="0 0 193.362 145.022">
  <defs>
    <style>
      .cls-1 {
        fill: #858585;
      }
    </style>
  </defs>
  <path id="new_custom40action" class="cls-1" d="M176.026,8H21.336C10.862,8,2,16.46,2,26.933V134.088c0,10.474,8.862,18.933,19.336,18.933h154.69c10.474,0,19.336-8.46,19.336-18.933V26.933C195.362,16.46,186.5,8,176.026,8Zm0,18.933V45.867H21.336V26.933ZM21.336,134.088v-56.8h154.69v56.8ZM76.525,93c-4.431,0-8.46,2.014-10.474,5.64a.839.839,0,0,1-1.611,0A12.151,12.151,0,0,0,53.966,93a12.494,12.494,0,1,0,0,24.976c4.431,0,8.46-2.014,10.474-5.64a.839.839,0,0,1,1.611,0,12.151,12.151,0,0,0,10.474,5.64h.4a12.3,12.3,0,0,0,12.488-12.488v-.806C89.013,98.639,83.373,93,76.525,93Zm73.719,3.223H111.572a6.363,6.363,0,0,0-6.445,6.445v6.043a6.363,6.363,0,0,0,6.445,6.445h38.672a6.363,6.363,0,0,0,6.445-6.445v-6.445A6.286,6.286,0,0,0,150.245,96.222Z" transform="translate(-2 -8)"/>
</svg>
